# xmcd CD database file
#
# Track frame offsets:
#	150
#	13082
#	26185
#	41945
#	55797
#	66950
#	79510
#	91015
#	104837
#	117825
#	130215
#	141677
#	156487
#	169652
#	188725
#	204495
#	214802
#	229147
#	246484
#
# Disc length: 3449 seconds
#
# Revision: 0
# Processed by: cddbd v1.5.2PL0 Copyright (c) Steve Scherf et al.
# Submitted via: CDex 1.51
#
DISCID=1d0d7713
DTITLE=TurpinTyme Ragsters - Trouble
DYEAR=1997
DGENRE=Jazz
TTITLE0=Smiles and Chuckles
TTITLE1=Fizz Water
TTITLE2=Ragtime Betty
TTITLE3=Crazybone Rag
TTITLE4=Dixie Girl
TTITLE5=Carolina Shout
TTITLE6=The Buffalo Rag
TTITLE7=Cleopha
TTITLE8=Beedle-Um-Bo
TTITLE9=Hot Chocolate Rag
TTITLE10=Grandpa's Spells
TTITLE11=Apple Jack, "Some Rag"
TTITLE12=Kansas City rag
TTITLE13=Mississippi Rag
TTITLE14=Slippery Elm Rag
TTITLE15=Raggy Trombone
TTITLE16=All the Money
TTITLE17=Tar Babies
TTITLE18=Trouble Rag
EXTD=YEAR: 1997
EXTT0=
EXTT1=
EXTT2=
EXTT3=
EXTT4=
EXTT5=
EXTT6=
EXTT7=
EXTT8=
EXTT9=
EXTT10=
EXTT11=
EXTT12=
EXTT13=
EXTT14=
EXTT15=
EXTT16=
EXTT17=
EXTT18=
PLAYORDER=
